<?xml version="1.0" standalone="no"?><!DOCTYPE svg PUBLIC "-//W3C//DTD SVG 1.1//EN" "http://www.w3.org/Graphics/SVG/1.1/DTD/svg11.dtd"><svg class="icon" width="200px" height="200.00px" viewBox="0 0 1024 1024" version="1.1" xmlns="http://www.w3.org/2000/svg"><path d="M277.504 655.36c0 23.552 18.944 42.496 42.496 42.496 23.552 0 42.496-18.944 42.496-42.496 0-23.552-18.944-42.496-42.496-42.496s-42.496 18.944-42.496 42.496zM679.424 655.36c0 23.552 18.944 42.496 42.496 42.496 23.552 0 42.496-18.944 42.496-42.496 0-23.552-18.944-42.496-42.496-42.496-23.552 0-42.496 18.944-42.496 42.496z" fill="#FF7879" /><path d="M802.304 871.936h-563.2c-73.216 0-133.12-59.904-133.12-133.12v-171.008c0-73.216 59.904-133.12 133.12-133.12h563.2c73.216 0 133.12 59.904 133.12 133.12v171.008c0 73.216-59.392 133.12-133.12 133.12z m-563.2-375.808c-39.424 0-71.68 32.256-71.68 71.68v171.008c0 39.424 32.256 71.68 71.68 71.68h563.2c39.424 0 71.68-32.256 71.68-71.68v-171.008c0-39.424-32.256-71.68-71.68-71.68h-563.2z" fill="#4B81EE" /><path d="M800.768 465.408H240.64v-148.48c0-56.32 46.08-102.4 102.4-102.4h355.328c56.32 0 102.4 46.08 102.4 102.4v148.48z" fill="#DBE6FC" /><path d="M800.768 496.128H240.64c-16.896 0-30.72-13.824-30.72-30.72v-148.48c0-73.216 59.904-133.12 133.12-133.12h355.328c73.216 0 133.12 59.904 133.12 133.12v148.48c0 16.896-13.824 30.72-30.72 30.72zM271.36 434.688h498.688v-117.76c0-39.424-32.256-71.68-71.68-71.68H343.04c-39.424 0-71.68 32.256-71.68 71.68v117.76zM623.104 134.144h-204.8c-16.896 0-30.72-13.824-30.72-30.72s13.824-30.72 30.72-30.72h204.8c16.896 0 30.72 13.824 30.72 30.72s-13.824 30.72-30.72 30.72zM188.416 962.56c-5.632 0-10.752-1.536-15.872-4.608-14.336-8.704-18.944-27.648-10.24-41.984L215.04 828.416c8.704-14.336 27.648-18.944 41.984-10.24 14.336 8.704 18.944 27.648 10.24 41.984l-53.248 87.552c-5.12 9.728-15.36 14.848-25.6 14.848zM853.504 967.68c-10.24 0-20.48-5.12-26.112-14.848L774.144 865.28c-8.704-14.336-4.096-33.28 10.24-41.984 14.336-8.704 33.28-4.096 41.984 10.24l53.248 87.552c8.704 14.336 4.096 33.28-10.24 41.984-5.12 3.072-10.752 4.608-15.872 4.608z" fill="#4B81EE" /></svg>