<?xml version="1.0" standalone="no"?><!DOCTYPE svg PUBLIC "-//W3C//DTD SVG 1.1//EN" "http://www.w3.org/Graphics/SVG/1.1/DTD/svg11.dtd"><svg class="icon" width="200px" height="200.00px" viewBox="0 0 1024 1024" version="1.1" xmlns="http://www.w3.org/2000/svg"><path d="M280.576 526.336c0 23.552 18.944 42.496 42.496 42.496 23.552 0 42.496-18.944 42.496-42.496 0-23.552-18.944-42.496-42.496-42.496s-42.496 18.944-42.496 42.496zM641.536 526.336c0 23.552 18.944 42.496 42.496 42.496 23.552 0 42.496-18.944 42.496-42.496s-18.944-42.496-42.496-42.496c-23.552 0-42.496 18.944-42.496 42.496zM460.8 526.336c0 23.552 18.944 42.496 42.496 42.496 23.552 0 42.496-18.944 42.496-42.496s-18.944-42.496-42.496-42.496c-23.552 0-42.496 18.944-42.496 42.496z" fill="#FF7879" /><path d="M721.92 936.448H302.08c-44.032 0-82.944-28.16-97.28-69.632L124.928 629.76c-5.632-15.872-6.656-33.28-4.096-50.176l33.28-182.784c10.752-65.024 67.072-112.64 133.632-112.64h448.512c66.56 0 122.368 47.616 133.632 112.64l33.28 177.664c3.072 16.896 1.536 34.304-3.584 50.176L819.2 866.304c-13.824 41.984-53.248 70.144-97.28 70.144zM287.744 346.112c-36.352 0-67.072 26.112-73.216 61.952l-33.28 182.784c-1.024 6.144-0.512 13.312 1.536 19.456l79.872 237.056c5.632 16.896 21.504 28.16 38.912 28.16h419.84c17.92 0 33.28-11.264 38.912-28.16l80.384-241.152c2.048-6.656 2.56-13.312 1.536-19.968L808.96 408.576c-6.144-36.352-36.864-61.952-73.216-61.952H287.744z" fill="#4B81EE" /><path d="M512 346.112c-16.896 0-30.72-13.824-30.72-30.72V144.384c0-16.896 13.824-30.72 30.72-30.72s30.72 13.824 30.72 30.72v171.52c0 16.384-13.824 30.208-30.72 30.208z" fill="#4B81EE" /><path d="M844.8 164.864H179.2c-16.896 0-30.72-13.824-30.72-30.72s13.824-30.72 30.72-30.72h665.6c16.896 0 30.72 13.824 30.72 30.72s-13.824 30.72-30.72 30.72z" fill="#4B81EE" /><path d="M825.344 751.616l-35.328 106.496c-9.728 28.672-36.352 48.128-66.56 48.128H300.544c-30.208 0-56.832-18.944-66.56-47.616L196.608 747.52l628.736 4.096z" fill="#DBE6FC" /><path d="M722.944 936.448H300.544c-43.008 0-81.408-27.648-95.232-68.608l-37.376-111.104c-3.072-9.216-1.536-19.968 4.096-27.648 5.632-8.192 15.36-12.8 25.088-12.8l628.224 4.096c9.728 0 18.944 4.608 24.576 12.8s7.168 18.432 4.096 27.648l-35.328 106.496c-13.824 41.472-52.224 69.12-95.744 69.12zM239.616 778.24l23.552 70.144c5.632 15.872 20.48 26.624 37.376 26.624h422.4c16.896 0 31.744-10.752 37.376-27.136l22.016-66.048-542.72-3.584z" fill="#4B81EE" /></svg>