<?xml version="1.0" standalone="no"?><!DOCTYPE svg PUBLIC "-//W3C//DTD SVG 1.1//EN" "http://www.w3.org/Graphics/SVG/1.1/DTD/svg11.dtd"><svg class="icon" width="200px" height="200.00px" viewBox="0 0 1024 1024" version="1.1" xmlns="http://www.w3.org/2000/svg"><path fill="#333333" d="M64 72.7v873.8h896.2V72.7H64z m37.3 37.4h821.5v799.1H101.3V110.1z m216 457.4L287.7 679c-0.6 3.1-1.9 4.2-5.5 4.2h-54.8c-3.7 0-4.3-1.3-3.7-5.6l106.1-370.9c1.9-6.7 3.1-12.1 3.7-30.6 0-2.5 1.2-3.7 3.1-3.7h78.3c2.5 0 3.7 0.7 4.3 3.7L538 678.3c0.6 3.1 0 4.8-3.1 4.8h-61.6c-3.1 0-4.8-1.1-5.5-3.6L437 567.4H317.5l-0.2 0.1z m104.8-60.6c-10.4-41.3-35.8-131.8-45-175.5h-0.6c-8 43.7-28.2 117.5-43.7 175.5h89.3z m200.1 38.2c0.6 50.5 24.6 84.4 81.3 84.4 22.2 0 41.2-2.9 60.9-11.6 2.5-1.2 4.4-0.6 4.4 2.5v46.8c0 3.7-1.2 5.6-3.7 7.5-19.7 9.9-44.2 14.2-75.1 14.2-98.6 0-135.5-72.7-135.5-154 0-88.1 45.6-160.2 125.7-160.2 81.3 0 109.7 68.4 109.7 123.9 0 17.9-1.3 32.7-3.2 39.5-0.6 3.1-1.9 4.1-4.9 4.7-7.4 1.2-29.6 2.5-62.3 2.5h-97.3v-0.2z m75.8-51.4c19.1 0 25.9 0 27.7-0.6 0-2.5 0.6-4.7 0.6-6.5 0-20.4-9.9-57.7-48.8-57.7-35.7 0-51.2 31.4-54.8 64.7l75.3 0.1z"  /></svg>